<mxfile host="app.diagrams.net" agent="Mozilla/5.0 (Windows NT 10.0; Win64; x64) AppleWebKit/537.36 (KHTML, like Gecko) Chrome/130.0.0.0 Safari/537.36" version="24.8.3">
  <diagram name="Page-1" id="mUo8h_FkjqE2tulGHCG2">
    <mxGraphModel dx="1950" dy="633" grid="1" gridSize="10" guides="1" tooltips="1" connect="1" arrows="1" fold="1" page="1" pageScale="1" pageWidth="850" pageHeight="1100" math="0" shadow="0">
      <root>
        <mxCell id="0" />
        <mxCell id="1" parent="0" />
        <mxCell id="5hXMSdMDTR9bR5ufYy7H-97" value="" style="ellipse;fillColor=strokeColor;" vertex="1" parent="1">
          <mxGeometry x="210" y="650" width="14" height="14" as="geometry" />
        </mxCell>
        <mxCell id="5hXMSdMDTR9bR5ufYy7H-98" value="Green (Remera ↔ Kacyiru) / Red (All Others)" style="rounded=1;arcSize=40;strokeWidth=2" vertex="1" parent="1">
          <mxGeometry x="113" y="714" width="209" height="53" as="geometry" />
        </mxCell>
        <mxCell id="5hXMSdMDTR9bR5ufYy7H-99" value="Yellow (Remera ↔ Kacyiru) / Red (All Others)" style="rounded=1;arcSize=40;strokeWidth=2" vertex="1" parent="1">
          <mxGeometry x="20" y="840" width="212" height="53" as="geometry" />
        </mxCell>
        <mxCell id="5hXMSdMDTR9bR5ufYy7H-100" value="Green (Remera to Nyarutarama) / Red (All Others)" style="rounded=1;arcSize=40;strokeWidth=2" vertex="1" parent="1">
          <mxGeometry x="32" y="965" width="189" height="70" as="geometry" />
        </mxCell>
        <mxCell id="5hXMSdMDTR9bR5ufYy7H-101" value="Yellow (Remera to Nyarutarama) / Red (All Others)" style="rounded=1;arcSize=40;strokeWidth=2" vertex="1" parent="1">
          <mxGeometry x="31" y="1108" width="190" height="70" as="geometry" />
        </mxCell>
        <mxCell id="5hXMSdMDTR9bR5ufYy7H-102" value="Green (Nyarutarama to Kacyiru, Nyarutarama to Sonatube) / Red (All Others)" style="rounded=1;arcSize=40;strokeWidth=2" vertex="1" parent="1">
          <mxGeometry x="30" y="1252" width="192" height="88" as="geometry" />
        </mxCell>
        <mxCell id="5hXMSdMDTR9bR5ufYy7H-103" value="Yellow (Nyarutarama to Kacyiru, Nyarutarama to Sonatube) / Red (All Others)" style="rounded=1;arcSize=40;strokeWidth=2" vertex="1" parent="1">
          <mxGeometry x="30" y="1412" width="193" height="88" as="geometry" />
        </mxCell>
        <mxCell id="5hXMSdMDTR9bR5ufYy7H-104" value="Green (Kacyiru to Nyarutarama, Remera to Sonatube) / Red (All Others)" style="rounded=1;arcSize=40;strokeWidth=2" vertex="1" parent="1">
          <mxGeometry x="30" y="1573" width="193" height="88" as="geometry" />
        </mxCell>
        <mxCell id="5hXMSdMDTR9bR5ufYy7H-105" value="Yellow (Kacyiru to Nyarutarama, Remera to Sonatube) / Red (All Others)" style="rounded=1;arcSize=40;strokeWidth=2" vertex="1" parent="1">
          <mxGeometry x="29" y="1734" width="194" height="88" as="geometry" />
        </mxCell>
        <mxCell id="5hXMSdMDTR9bR5ufYy7H-106" value="All Red (Pedestrian Crossing)" style="rounded=1;arcSize=40;strokeWidth=2" vertex="1" parent="1">
          <mxGeometry x="140" y="1895" width="153" height="53" as="geometry" />
        </mxCell>
        <mxCell id="5hXMSdMDTR9bR5ufYy7H-107" value="" style="curved=1;startArrow=none;;exitX=0.49;exitY=1;entryX=0.5;entryY=0;rounded=0;" edge="1" parent="1" source="5hXMSdMDTR9bR5ufYy7H-97" target="5hXMSdMDTR9bR5ufYy7H-98">
          <mxGeometry relative="1" as="geometry">
            <Array as="points" />
          </mxGeometry>
        </mxCell>
        <mxCell id="5hXMSdMDTR9bR5ufYy7H-108" value="Time elapsed" style="curved=1;startArrow=none;;exitX=0.32;exitY=0.99;entryX=0.5;entryY=-0.01;rounded=0;" edge="1" parent="1" source="5hXMSdMDTR9bR5ufYy7H-98" target="5hXMSdMDTR9bR5ufYy7H-99">
          <mxGeometry relative="1" as="geometry">
            <Array as="points">
              <mxPoint x="126" y="803" />
            </Array>
          </mxGeometry>
        </mxCell>
        <mxCell id="5hXMSdMDTR9bR5ufYy7H-109" value="Time elapsed" style="curved=1;startArrow=none;;exitX=0.5;exitY=0.98;entryX=0.5;entryY=0;rounded=0;" edge="1" parent="1" source="5hXMSdMDTR9bR5ufYy7H-99" target="5hXMSdMDTR9bR5ufYy7H-100">
          <mxGeometry relative="1" as="geometry">
            <Array as="points" />
          </mxGeometry>
        </mxCell>
        <mxCell id="5hXMSdMDTR9bR5ufYy7H-110" value="Time elapsed" style="curved=1;startArrow=none;;exitX=0.5;exitY=1.01;entryX=0.5;entryY=0.01;rounded=0;" edge="1" parent="1" source="5hXMSdMDTR9bR5ufYy7H-100" target="5hXMSdMDTR9bR5ufYy7H-101">
          <mxGeometry relative="1" as="geometry">
            <Array as="points" />
          </mxGeometry>
        </mxCell>
        <mxCell id="5hXMSdMDTR9bR5ufYy7H-111" value="Time elapsed" style="curved=1;startArrow=none;;exitX=0.5;exitY=1.01;entryX=0.5;entryY=0;rounded=0;" edge="1" parent="1" source="5hXMSdMDTR9bR5ufYy7H-101" target="5hXMSdMDTR9bR5ufYy7H-102">
          <mxGeometry relative="1" as="geometry">
            <Array as="points" />
          </mxGeometry>
        </mxCell>
        <mxCell id="5hXMSdMDTR9bR5ufYy7H-112" value="Time elapsed" style="curved=1;startArrow=none;;exitX=0.5;exitY=0.99;entryX=0.5;entryY=0;rounded=0;" edge="1" parent="1" source="5hXMSdMDTR9bR5ufYy7H-102" target="5hXMSdMDTR9bR5ufYy7H-103">
          <mxGeometry relative="1" as="geometry">
            <Array as="points" />
          </mxGeometry>
        </mxCell>
        <mxCell id="5hXMSdMDTR9bR5ufYy7H-113" value="Time elapsed" style="curved=1;startArrow=none;;exitX=0.5;exitY=1;entryX=0.5;entryY=0;rounded=0;" edge="1" parent="1" source="5hXMSdMDTR9bR5ufYy7H-103" target="5hXMSdMDTR9bR5ufYy7H-104">
          <mxGeometry relative="1" as="geometry">
            <Array as="points" />
          </mxGeometry>
        </mxCell>
        <mxCell id="5hXMSdMDTR9bR5ufYy7H-114" value="Time elapsed" style="curved=1;startArrow=none;;exitX=0.5;exitY=1;entryX=0.5;entryY=0;rounded=0;" edge="1" parent="1" source="5hXMSdMDTR9bR5ufYy7H-104" target="5hXMSdMDTR9bR5ufYy7H-105">
          <mxGeometry relative="1" as="geometry">
            <Array as="points" />
          </mxGeometry>
        </mxCell>
        <mxCell id="5hXMSdMDTR9bR5ufYy7H-115" value="Time elapsed" style="curved=1;startArrow=none;;exitX=0.5;exitY=1;entryX=0.25;entryY=0;rounded=0;" edge="1" parent="1" source="5hXMSdMDTR9bR5ufYy7H-105" target="5hXMSdMDTR9bR5ufYy7H-106">
          <mxGeometry relative="1" as="geometry">
            <Array as="points">
              <mxPoint x="126" y="1858" />
            </Array>
          </mxGeometry>
        </mxCell>
        <mxCell id="5hXMSdMDTR9bR5ufYy7H-116" value="Time elapsed" style="curved=1;startArrow=none;;exitX=0.75;exitY=0;entryX=0.68;entryY=0.99;rounded=0;" edge="1" parent="1" source="5hXMSdMDTR9bR5ufYy7H-106" target="5hXMSdMDTR9bR5ufYy7H-98">
          <mxGeometry relative="1" as="geometry">
            <Array as="points">
              <mxPoint x="307" y="1858" />
              <mxPoint x="307" y="803" />
            </Array>
          </mxGeometry>
        </mxCell>
      </root>
    </mxGraphModel>
  </diagram>
</mxfile>
